<svg width="24" height="24" viewBox="0 0 24 24" fill="none" xmlns="http://www.w3.org/2000/svg">
<g clip-path="url(#clip0_71_400)">
<path fill-rule="evenodd" clip-rule="evenodd" d="M19.9993 7.90339C19.9998 7.86898 20 7.83452 20 7.8C20 3.49218 16.4183 0 12 0C7.58172 0 4 3.49218 4 7.8C4 7.8713 4.00098 7.94238 4.00293 8.01323C4.00394 9.45712 4.43132 11.1944 5.08163 12.3H5.0718L12 24L18.9282 12.3H18.9185C19.5712 11.1933 20 9.4506 20 8.00383C20 7.97026 19.9998 7.93678 19.9993 7.90339ZM12 10.92C10.2327 10.92 8.8 9.52313 8.8 7.8C8.8 6.07687 10.2327 4.68 12 4.68C13.7673 4.68 15.2 6.07687 15.2 7.8C15.2 9.52313 13.7673 10.92 12 10.92Z" fill="#FFE681"/>
</g>
<defs>
<clipPath id="clip0_71_400">
<rect width="24" height="24" fill="white"/>
</clipPath>
</defs>
</svg>
